External Loads File
version=1
nRows=46
nColumns=13
Range=5.000000e-03-10 seconds
endheader
time 	forceRightX 	forceRightY 	forceRightZ 	pointRightX 	pointRightY 	pointRightZ 	forceLeftX 	forceLeftY 	forceLeftZ 	pointLeftX 	pointLeftY 	pointLeftZ 		
2.505000 78.846131 701.263227 -0.000000 0.367194 0.205689 -0.132694 21.967617 -76.106081 -0.000000 0.193527 0.435892 -0.375189
2.510000 102.972434 689.370156 -0.000000 0.360088 0.198281 -0.132955 10.368654 -91.200620 -0.000000 0.200907 0.443534 -0.374504
2.515000 126.470057 675.682893 -0.000000 0.352499 0.191296 -0.133085 -1.776880 -105.331216 -0.000000 0.208931 0.450857 -0.374257
2.520000 147.173050 660.778472 -0.000000 0.344858 0.184683 -0.133407 -14.019075 -117.979945 -0.000000 0.217032 0.457653 -0.374072
2.525000 166.179471 644.569253 -0.000000 0.336714 0.178757 -0.133616 -26.277031 -128.632913 -0.000000 0.225383 0.463919 -0.373830
2.530000 183.234680 627.081447 -0.000000 0.328248 0.173352 -0.133741 -38.251619 -136.892418 -0.000000 0.233933 0.469541 -0.373576
2.535000 197.602929 608.504016 -0.000000 0.320047 0.168299 -0.134130 -49.556954 -142.655099 -0.000000 0.242757 0.474612 -0.373656
2.540000 210.285721 588.533215 -0.000000 0.311374 0.164017 -0.134364 -60.253362 -145.946266 -0.000000 0.251674 0.479316 -0.373325
2.545000 220.605154 567.415767 -0.000000 0.302706 0.160230 -0.134710 -70.069901 -147.084986 -0.000000 0.260706 0.483344 -0.373079
2.550000 228.872982 545.067131 -0.000000 0.294094 0.157055 -0.135085 -79.023256 -146.384108 -0.000000 0.269956 0.486805 -0.372710
2.555000 235.671512 521.188164 -0.000000 0.285067 0.154369 -0.135330 -87.265384 -144.076893 -0.000000 0.279207 0.489623 -0.372856
2.560000 240.511013 495.834590 -0.000000 0.276093 0.152393 -0.135581 -94.679848 -140.476014 -0.000000 0.288563 0.491810 -0.372490
2.565000 243.168170 468.936432 -0.000000 0.267248 0.150919 -0.136005 -101.214925 -135.800616 -0.000000 0.297890 0.493249 -0.372248
2.570000 243.826709 440.271854 -0.000000 0.258399 0.150255 -0.136389 -106.950094 -130.115630 -0.000000 0.307178 0.494160 -0.372281
2.575000 241.988122 410.120222 -0.000000 0.249772 0.150032 -0.136887 -111.803287 -123.561433 -0.000000 0.316335 0.494349 -0.372084
2.580000 237.781747 378.611346 -0.000000 0.241084 0.150521 -0.137143 -115.943669 -116.051078 -0.000000 0.325191 0.493875 -0.372042
2.585000 230.655086 346.520306 -0.000000 0.232897 0.151581 -0.137738 -119.416458 -107.628545 -0.000000 0.333769 0.492774 -0.372174
2.590000 221.084733 314.213438 -0.000000 0.224912 0.153066 -0.138096 -122.656483 -98.003313 -0.000000 0.341994 0.490953 -0.372283
2.595000 209.645528 282.117007 -0.000000 0.217095 0.155285 -0.138585 -126.205864 -86.822353 -0.000000 0.350009 0.488570 -0.372106
2.600000 196.400407 251.108096 -0.000000 0.209681 0.157766 -0.138898 -130.513953 -73.968400 -0.000000 0.357585 0.485579 -0.372202
2.605000 182.282470 221.385789 -0.000000 0.202630 0.161021 -0.139137 -136.309492 -58.896703 -0.000000 0.364765 0.481706 -0.372263
2.610000 167.944268 193.184747 -0.000000 0.195531 0.164707 -0.139564 -144.150994 -41.031255 -0.000000 0.371565 0.477041 -0.372801
2.615000 153.521083 166.954413 -0.000000 0.188826 0.168974 -0.139876 -154.350187 -20.029759 -0.000000 0.377932 0.471698 -0.373456
2.620000 139.214501 142.857462 -0.000000 0.182381 0.173730 -0.140226 -167.137123 4.532126 -0.000000 0.383828 0.465825 -0.373694
2.625000 125.108354 120.960919 -0.000000 0.176119 0.179069 -0.140703 -182.577666 33.055331 -0.000000 0.389326 0.459502 -0.373763
2.630000 111.067678 101.526486 -0.000000 0.170297 0.184821 -0.141222 -200.635467 65.581417 -0.000000 0.394314 0.452509 -0.373984
2.635000 97.118310 84.862757 -0.000000 0.164927 0.190983 -0.141707 -221.255107 101.984893 -0.000000 0.398981 0.445208 -0.373858
2.640000 83.516470 71.320121 -0.000000 0.159758 0.197498 -0.142160 -244.314484 142.037023 -0.000000 0.403043 0.437284 -0.373855
2.645000 70.614129 61.318208 -0.000000 0.155251 0.204465 -0.142598 -269.813029 185.010933 -0.000000 0.406770 0.429014 -0.373766
2.650000 58.982879 54.965730 -0.000000 0.151138 0.211819 -0.143043 -297.477365 230.352176 -0.000000 0.410113 0.420176 -0.373716
2.655000 49.097837 52.187160 -0.000000 0.147483 0.219515 -0.143110 -327.190524 277.065227 -0.000000 0.413086 0.410945 -0.373507
2.660000 41.320496 52.533169 -0.000000 0.144439 0.227675 -0.143101 -358.648877 324.383624 -0.000000 0.415704 0.401359 -0.373459
2.665000 35.752315 55.272702 -0.000000 0.141763 0.236012 -0.143161 -391.394948 371.776669 -0.000000 0.417970 0.391332 -0.373301
2.670000 32.230184 59.553006 -0.000000 0.139674 0.244785 -0.143244 -424.696044 419.075608 -0.000000 0.420053 0.381060 -0.373076
2.675000 30.301377 64.648158 -0.000000 0.138113 0.253767 -0.143232 -458.132976 465.830665 -0.000000 0.421541 0.370581 -0.372990
2.680000 29.457595 69.998551 -0.000000 0.137211 0.262879 -0.143236 -490.718412 512.185183 -0.000000 0.422492 0.359870 -0.372967
2.685000 29.210238 75.252258 -0.000000 0.136852 0.272141 -0.143115 -521.306878 558.414562 -0.000000 0.422959 0.349085 -0.372948
2.690000 29.178501 80.190864 -0.000000 0.137120 0.281556 -0.143137 -548.756118 604.749133 -0.000000 0.422908 0.338324 -0.372849
2.695000 29.177060 84.596903 -0.000000 0.137809 0.291180 -0.142951 -571.413968 651.800654 -0.000000 0.422122 0.327554 -0.372828
2.700000 29.094137 88.233023 -0.000000 0.139228 0.300958 -0.142893 -587.582185 700.038399 -0.000000 0.420858 0.316684 -0.372444
2.705000 28.773206 90.905405 -0.000000 0.140985 0.310843 -0.142982 -595.979744 749.273328 -0.000000 0.419038 0.305834 -0.372288
2.710000 27.971021 92.525102 -0.000000 0.143270 0.320729 -0.142965 -596.084884 798.363523 -0.000000 0.416512 0.295253 -0.372190
2.715000 26.766987 92.992744 -0.000000 0.146666 0.330817 -0.142993 -584.878909 847.676849 -0.000000 0.413410 0.284683 -0.372686
2.720000 24.798034 92.403840 -0.000000 0.149932 0.340725 -0.143089 -563.814879 894.068756 -0.000000 0.409787 0.274381 -0.372338
2.725000 22.211366 90.732392 -0.000000 0.154258 0.350719 -0.142973 -530.469315 937.037068 -0.000000 0.405537 0.264262 -0.372174
2.730000 18.834522 88.048037 -0.000000 0.158865 0.360817 -0.142995 -485.995148 973.840684 -0.000000 0.400709 0.254460 -0.372089
